<svg width="138" height="96" viewBox="0 0 138 96" fill="none" xmlns="http://www.w3.org/2000/svg">
<path d="M44.5717 45.7168C41.6666 47.8108 35.634 50.7425 34.744 45.7168C33.6314 39.4346 37.1545 25.8231 44.5717 30.7093C51.9889 35.5955 79.4324 69.4495 53.4723 69.275C27.5122 69.1005 19.1679 60.7243 22.691 45.7168C26.2142 30.7093 31.9626 -22.1659 65.7107 10.1176C99.4589 42.4011 106.505 71.8926 87.7768 79.2218C69.0485 86.551 31.5917 102.082 14.7177 88.8196C-2.15638 75.5572 -3.63981 7.15099 14.7177 -8.2055C33.0752 -23.562 63.9897 -21.6708 82.2139 -15.1857C108.509 -5.82866 143.591 37.1659 135.247 55.6635" stroke="white" stroke-opacity="0.15" stroke-width="2.18201"/>
</svg>
