<svg width="49" height="48" viewBox="0 0 49 48" fill="none" xmlns="http://www.w3.org/2000/svg">
<path d="M0.5 24C0.5 10.7452 11.2452 0 24.5 0C37.7548 0 48.5 10.7452 48.5 24C48.5 37.2548 37.7548 48 24.5 48C11.2452 48 0.5 37.2548 0.5 24Z" fill="#DD0000" fill-opacity="0.3"/>
<path d="M19.5001 36H21.5001V34H19.5001V36ZM23.5001 36H25.5001V34H23.5001V36ZM24.5001 14C23.9501 14 23.5001 14.45 23.5001 15V23C23.5001 23.55 23.9501 24 24.5001 24C25.0501 24 25.5001 23.55 25.5001 23V15C25.5001 14.45 25.0501 14 24.5001 14ZM28.4401 17.06L28.4201 17.08C28.0101 17.49 28.0601 18.16 28.5001 18.54C30.0101 19.88 30.8301 21.97 30.3801 24.24C29.9201 26.52 28.0901 28.38 25.8201 28.86C21.9301 29.69 18.5001 26.74 18.5001 23C18.5001 21.22 19.2801 19.63 20.5101 18.53C20.9401 18.14 20.9801 17.49 20.5801 17.08L20.5601 17.06C20.1901 16.69 19.6001 16.67 19.2001 17.02C17.1901 18.79 16.0801 21.55 16.6401 24.54C17.2301 27.69 19.7501 30.24 22.9001 30.85C28.0201 31.84 32.5001 27.95 32.5001 23C32.5001 20.62 31.4501 18.48 29.7901 17.01C29.4001 16.67 28.8101 16.69 28.4401 17.06ZM27.5001 36H29.5001V34H27.5001V36Z" fill="url(#paint0_linear_3152_13405)"/>
<path d="M24.5 47C11.7975 47 1.5 36.7025 1.5 24H-0.5C-0.5 37.8071 10.6929 49 24.5 49V47ZM47.5 24C47.5 36.7025 37.2025 47 24.5 47V49C38.3071 49 49.5 37.8071 49.5 24H47.5ZM24.5 1C37.2025 1 47.5 11.2975 47.5 24H49.5C49.5 10.1929 38.3071 -1 24.5 -1V1ZM24.5 -1C10.6929 -1 -0.5 10.1929 -0.5 24H1.5C1.5 11.2975 11.7975 1 24.5 1V-1Z" fill="url(#paint1_linear_3152_13405)"/>
<defs>
<linearGradient id="paint0_linear_3152_13405" x1="24.4977" y1="14" x2="24.4977" y2="36" gradientUnits="userSpaceOnUse">
<stop stop-color="#FF5959"/>
<stop offset="1" stop-color="#EF2C2C"/>
</linearGradient>
<linearGradient id="paint1_linear_3152_13405" x1="24.5" y1="0" x2="24.5" y2="48" gradientUnits="userSpaceOnUse">
<stop stop-color="#FF5959"/>
<stop offset="1" stop-color="#EF2C2C"/>
</linearGradient>
</defs>
</svg>
