<svg width="18" height="18" viewBox="0 0 18 18" fill="none" xmlns="http://www.w3.org/2000/svg">
<path d="M5.66668 8.16675C5.50186 8.16675 5.34074 8.21562 5.2037 8.30719C5.06666 8.39876 4.95985 8.52891 4.89678 8.68118C4.8337 8.83345 4.8172 9.00101 4.84936 9.16266C4.88151 9.32431 4.96088 9.47279 5.07742 9.58934C5.19397 9.70588 5.34245 9.78525 5.5041 9.8174C5.66575 9.84956 5.83331 9.83305 5.98558 9.76998C6.13785 9.70691 6.268 9.6001 6.35957 9.46306C6.45114 9.32602 6.50001 9.1649 6.50001 9.00008C6.50001 8.77907 6.41221 8.56711 6.25593 8.41083C6.09965 8.25455 5.88769 8.16675 5.66668 8.16675ZM9.00001 8.16675C8.83519 8.16675 8.67408 8.21562 8.53703 8.30719C8.39999 8.39876 8.29318 8.52891 8.23011 8.68118C8.16704 8.83345 8.15054 9.00101 8.18269 9.16266C8.21484 9.32431 8.29421 9.47279 8.41076 9.58934C8.5273 9.70588 8.67578 9.78525 8.83744 9.8174C8.99909 9.84956 9.16664 9.83305 9.31891 9.76998C9.47119 9.70691 9.60133 9.6001 9.6929 9.46306C9.78447 9.32602 9.83334 9.1649 9.83334 9.00008C9.83334 8.77907 9.74555 8.56711 9.58927 8.41083C9.43299 8.25455 9.22102 8.16675 9.00001 8.16675ZM12.3333 8.16675C12.1685 8.16675 12.0074 8.21562 11.8704 8.30719C11.7333 8.39876 11.6265 8.52891 11.5634 8.68118C11.5004 8.83345 11.4839 9.00101 11.516 9.16266C11.5482 9.32431 11.6275 9.47279 11.7441 9.58934C11.8606 9.70588 12.0091 9.78525 12.1708 9.8174C12.3324 9.84956 12.5 9.83305 12.6522 9.76998C12.8045 9.70691 12.9347 9.6001 13.0262 9.46306C13.1178 9.32602 13.1667 9.1649 13.1667 9.00008C13.1667 8.77907 13.0789 8.56711 12.9226 8.41083C12.7663 8.25455 12.5544 8.16675 12.3333 8.16675ZM9.00001 0.666748C7.90566 0.666748 6.82203 0.882296 5.81098 1.30109C4.79993 1.71987 3.88128 2.3337 3.10745 3.10752C1.54465 4.67033 0.666677 6.78994 0.666677 9.00008C0.659392 10.9244 1.32567 12.7905 2.55001 14.2751L0.883344 15.9417C0.767712 16.0589 0.689382 16.2077 0.658237 16.3694C0.627092 16.5311 0.644528 16.6983 0.708344 16.8501C0.777559 17 0.889764 17.126 1.03072 17.2121C1.17167 17.2981 1.33501 17.3404 1.50001 17.3334H9.00001C11.2101 17.3334 13.3298 16.4554 14.8926 14.8926C16.4554 13.3298 17.3333 11.2102 17.3333 9.00008C17.3333 6.78994 16.4554 4.67033 14.8926 3.10752C13.3298 1.54472 11.2101 0.666748 9.00001 0.666748ZM9.00001 15.6667H3.50834L4.28334 14.8917C4.36208 14.8146 4.42473 14.7225 4.46764 14.621C4.51055 14.5194 4.53289 14.4103 4.53334 14.3001C4.53021 14.0803 4.44036 13.8706 4.28334 13.7167C3.19217 12.6268 2.51266 11.1922 2.36059 9.65741C2.20852 8.12262 2.5933 6.58259 3.44937 5.29968C4.30544 4.01678 5.57984 3.07038 7.05544 2.62173C8.53104 2.17307 10.1166 2.24992 11.5419 2.83918C12.9672 3.42843 14.1441 4.49364 14.872 5.85332C15.6 7.213 15.8341 8.78303 15.5343 10.2959C15.2345 11.8088 14.4194 13.171 13.228 14.1503C12.0365 15.1296 10.5423 15.6655 9.00001 15.6667Z" fill="black"/>
</svg>
