<svg width="18" height="20" viewBox="0 0 18 20" fill="none" xmlns="http://www.w3.org/2000/svg">
<path fill-rule="evenodd" clip-rule="evenodd" d="M8.9999 0.833008C7.45281 0.833008 5.96908 1.44759 4.87511 2.54155C3.78115 3.63551 3.16657 5.11925 3.16657 6.66634C3.16657 9.46022 2.56901 11.1952 2.01832 12.2048C1.74183 12.7117 1.47259 13.0442 1.28557 13.2417C1.19184 13.3406 1.11818 13.4062 1.07384 13.4431C1.05165 13.4616 1.03677 13.473 1.03036 13.4778L1.02798 13.4795C0.729239 13.6847 0.59704 14.0601 0.702325 14.4078C0.808741 14.7593 1.13268 14.9997 1.4999 14.9997H16.4999C16.8671 14.9997 17.1911 14.7593 17.2975 14.4078C17.4028 14.0601 17.2706 13.6847 16.9718 13.4795L16.9694 13.4778C16.963 13.473 16.9482 13.4616 16.926 13.4431C16.8816 13.4062 16.808 13.3406 16.7142 13.2417C16.5272 13.0442 16.258 12.7117 15.9815 12.2048C15.4308 11.1952 14.8332 9.46022 14.8332 6.66634C14.8332 5.11925 14.2187 3.63551 13.1247 2.54155C12.0307 1.44759 10.547 0.833008 8.9999 0.833008ZM14.5183 13.0029C14.5817 13.1191 14.6454 13.2291 14.7088 13.333H3.29101C3.35441 13.2291 3.41807 13.1191 3.48148 13.0029C4.18079 11.7208 4.83324 9.70579 4.83324 6.66634C4.83324 5.56127 5.27222 4.50146 6.05362 3.72006C6.83503 2.93866 7.89483 2.49967 8.9999 2.49967C10.105 2.49967 11.1648 2.93866 11.9462 3.72006C12.7276 4.50146 13.1666 5.56127 13.1666 6.66634C13.1666 9.70579 13.819 11.7208 14.5183 13.0029ZM8.27908 17.0816C8.04815 16.6835 7.53821 16.5479 7.14011 16.7789C6.742 17.0098 6.60648 17.5197 6.83742 17.9179C7.05718 18.2967 7.37261 18.6112 7.75213 18.8298C8.13165 19.0484 8.56194 19.1634 8.99991 19.1634C9.43789 19.1634 9.86818 19.0484 10.2477 18.8298C10.6272 18.6112 10.9427 18.2967 11.1624 17.9179C11.3933 17.5197 11.2578 17.0098 10.8597 16.7789C10.4616 16.5479 9.95168 16.6835 9.72075 17.0816C9.64749 17.2079 9.54235 17.3127 9.41584 17.3855C9.28934 17.4584 9.14591 17.4968 8.99991 17.4968C8.85392 17.4968 8.71049 17.4584 8.58399 17.3855C8.45748 17.3127 8.35234 17.2079 8.27908 17.0816Z" fill="white"/>
</svg>
