<svg width="18" height="18" viewBox="0 0 18 18" fill="none" xmlns="http://www.w3.org/2000/svg">
<path d="M1.50003 5.75019C1.72105 5.75019 1.93301 5.66239 2.08929 5.50611C2.24557 5.34983 2.33336 5.13787 2.33336 4.91685V4.75852C2.33336 4.53751 2.24557 4.32554 2.08929 4.16926C1.93301 4.01298 1.72105 3.92519 1.50003 3.92519C1.27902 3.92519 1.06706 4.01298 0.910776 4.16926C0.754495 4.32554 0.666698 4.53751 0.666698 4.75852V4.91685C0.666698 5.13787 0.754495 5.34983 0.910776 5.50611C1.06706 5.66239 1.27902 5.75019 1.50003 5.75019ZM1.50003 2.41685C1.62137 2.41489 1.74082 2.38645 1.85003 2.33352C2.07105 2.29816 2.26896 2.17645 2.40023 1.99516C2.53151 1.81388 2.58539 1.58787 2.55003 1.36685C2.51467 1.14584 2.39296 0.947925 2.21167 0.81665C2.03039 0.685374 1.80438 0.631491 1.58336 0.666853H1.50003C1.27091 0.685818 1.0575 0.790962 0.902847 0.961079C0.748195 1.1312 0.663805 1.35363 0.666698 1.58352C0.677397 1.79723 0.769895 1.99864 0.925031 2.14602C1.08017 2.2934 1.28605 2.37545 1.50003 2.37519V2.41685ZM15.9917 2.25852C16.1216 2.36051 16.2788 2.42162 16.4434 2.4341C16.6081 2.44658 16.7727 2.40987 16.9165 2.32862C17.0602 2.24737 17.1766 2.12525 17.2508 1.97776C17.325 1.83026 17.3538 1.66404 17.3334 1.50019C17.3334 1.27917 17.2456 1.06721 17.0893 0.91093C16.933 0.75465 16.721 0.666853 16.5 0.666853H16.4167C16.2341 0.666906 16.0566 0.726917 15.9115 0.83766C15.7663 0.948403 15.6616 1.10375 15.6133 1.27983C15.565 1.4559 15.5759 1.64296 15.6442 1.81225C15.7126 1.98153 15.8347 2.12369 15.9917 2.21685V2.25852ZM8.90837 2.33352H9.0917C9.31271 2.33352 9.52467 2.24572 9.68095 2.08944C9.83723 1.93316 9.92503 1.7212 9.92503 1.50019C9.92503 1.27917 9.83723 1.06721 9.68095 0.91093C9.52467 0.75465 9.31271 0.666853 9.0917 0.666853H8.90837C8.68735 0.666853 8.47539 0.75465 8.31911 0.91093C8.16283 1.06721 8.07503 1.27917 8.07503 1.50019C8.07503 1.7212 8.16283 1.93316 8.31911 2.08944C8.47539 2.24572 8.68735 2.33352 8.90837 2.33352ZM5.15836 2.33352H5.33336C5.55438 2.33352 5.76634 2.24572 5.92262 2.08944C6.0789 1.93316 6.1667 1.7212 6.1667 1.50019C6.1667 1.27917 6.0789 1.06721 5.92262 0.91093C5.76634 0.75465 5.55438 0.666853 5.33336 0.666853H5.15836C4.93735 0.666853 4.72539 0.75465 4.56911 0.91093C4.41283 1.06721 4.32503 1.27917 4.32503 1.50019C4.32503 1.7212 4.41283 1.93316 4.56911 2.08944C4.72539 2.24572 4.93735 2.33352 5.15836 2.33352ZM16.5 15.6669C16.3787 15.6688 16.2592 15.6973 16.15 15.7502C15.9852 15.8275 15.8502 15.9566 15.7656 16.1178C15.6811 16.2791 15.6517 16.4636 15.682 16.6431C15.7122 16.8227 15.8004 16.9874 15.9331 17.112C16.0658 17.2367 16.2356 17.3145 16.4167 17.3335H16.5C16.7292 17.3146 16.9426 17.2094 17.0972 17.0393C17.2519 16.8692 17.3363 16.6467 17.3334 16.4169C17.3126 16.2106 17.2158 16.0194 17.0617 15.8808C16.9076 15.7421 16.7073 15.6658 16.5 15.6669ZM10.6667 8.16685C10.6667 7.94584 10.5789 7.73388 10.4226 7.5776C10.2663 7.42132 10.0544 7.33352 9.83336 7.33352H1.72503C1.65033 7.32411 1.57474 7.32411 1.50003 7.33352C1.27902 7.33352 1.06706 7.42132 0.910776 7.5776C0.754495 7.73388 0.666698 7.94584 0.666698 8.16685V16.5002C0.666698 16.7212 0.754495 16.9332 0.910776 17.0894C1.06706 17.2457 1.27902 17.3335 1.50003 17.3335H9.9167C10.0561 17.3325 10.193 17.2965 10.3149 17.2288C10.4367 17.1612 10.5397 17.0641 10.6143 16.9463C10.6889 16.8286 10.7328 16.694 10.742 16.5549C10.7511 16.4158 10.7252 16.2767 10.6667 16.1502V8.16685ZM9.00003 15.6669H3.60003L6.85836 12.4169C6.88395 12.3909 6.91444 12.3703 6.94806 12.3562C6.98168 12.3422 7.01776 12.3349 7.0542 12.3349C7.09064 12.3349 7.12672 12.3422 7.16034 12.3562C7.19396 12.3703 7.22445 12.3909 7.25003 12.4169L9.00003 14.1585V15.6669ZM9.00003 11.8085L8.43336 11.2335C8.06657 10.8697 7.57085 10.6655 7.0542 10.6655C6.53755 10.6655 6.04183 10.8697 5.67503 11.2335L2.3417 14.5669V9.00019H9.00836L9.00003 11.8085ZM16.5 11.8085C16.279 11.8085 16.0671 11.8963 15.9108 12.0526C15.7545 12.2089 15.6667 12.4208 15.6667 12.6419V12.8169C15.6667 13.0379 15.7545 13.2498 15.9108 13.4061C16.0671 13.5624 16.279 13.6502 16.5 13.6502C16.721 13.6502 16.933 13.5624 17.0893 13.4061C17.2456 13.2498 17.3334 13.0379 17.3334 12.8169V12.6669C17.3334 12.4458 17.2456 12.2339 17.0893 12.0776C16.933 11.9213 16.721 11.8335 16.5 11.8335V11.8085ZM16.5 4.30852C16.279 4.30852 16.0671 4.39632 15.9108 4.5526C15.7545 4.70888 15.6667 4.92084 15.6667 5.14185V5.33352C15.6667 5.55453 15.7545 5.7665 15.9108 5.92278C16.0671 6.07906 16.279 6.16685 16.5 6.16685C16.721 6.16685 16.933 6.07906 17.0893 5.92278C17.2456 5.7665 17.3334 5.55453 17.3334 5.33352V5.15852C17.3334 4.93751 17.2456 4.72554 17.0893 4.56926C16.933 4.41298 16.721 4.32519 16.5 4.32519V4.30852ZM16.5 8.05852C16.279 8.05852 16.0671 8.14632 15.9108 8.3026C15.7545 8.45888 15.6667 8.67084 15.6667 8.89185V9.07519C15.6667 9.2962 15.7545 9.50816 15.9108 9.66444C16.0671 9.82072 16.279 9.90852 16.5 9.90852C16.721 9.90852 16.933 9.82072 17.0893 9.66444C17.2456 9.50816 17.3334 9.2962 17.3334 9.07519V8.89185C17.329 8.67374 17.2393 8.46604 17.0835 8.31334C16.9277 8.16065 16.7182 8.07514 16.5 8.07519V8.05852ZM13.25 15.6669H13.0834C12.8624 15.6669 12.6504 15.7547 12.4941 15.9109C12.3378 16.0672 12.25 16.2792 12.25 16.5002C12.25 16.7212 12.3378 16.9332 12.4941 17.0894C12.6504 17.2457 12.8624 17.3335 13.0834 17.3335H13.25C13.471 17.3335 13.683 17.2457 13.8393 17.0894C13.9956 16.9332 14.0834 16.7212 14.0834 16.5002C14.0834 16.2792 13.9956 16.0672 13.8393 15.9109C13.683 15.7547 13.471 15.6669 13.25 15.6669ZM12.8417 2.33352C13.0627 2.33352 13.2747 2.24572 13.431 2.08944C13.5872 1.93316 13.675 1.7212 13.675 1.50019C13.675 1.27917 13.5872 1.06721 13.431 0.91093C13.2747 0.75465 13.0627 0.666853 12.8417 0.666853H12.6667C12.4457 0.666853 12.2337 0.75465 12.0774 0.91093C11.9212 1.06721 11.8334 1.27917 11.8334 1.50019C11.8334 1.7212 11.9212 1.93316 12.0774 2.08944C12.2337 2.24572 12.4457 2.33352 12.6667 2.33352H12.8417Z" fill="#959595"/>
</svg>
