<svg width="18" height="14" viewBox="0 0 18 14" fill="none" xmlns="http://www.w3.org/2000/svg">
<path d="M9.35842 0.416653C9.22308 0.358104 9.07464 0.336513 8.92824 0.354081C8.78184 0.371649 8.64272 0.427748 8.52508 0.516653L4.54175 3.66665H1.50008C1.27907 3.66665 1.06711 3.75445 0.910826 3.91073C0.754545 4.06701 0.666748 4.27897 0.666748 4.49999V9.49999C0.666748 9.721 0.754545 9.93296 0.910826 10.0892C1.06711 10.2455 1.27907 10.3333 1.50008 10.3333H4.54175L8.48342 13.4833C8.63003 13.601 8.81211 13.6656 9.00008 13.6667C9.12456 13.6687 9.24762 13.6401 9.35842 13.5833C9.50023 13.5158 9.62006 13.4095 9.7041 13.2768C9.78814 13.1441 9.83297 12.9904 9.83342 12.8333V1.16665C9.83297 1.00958 9.78814 0.855833 9.7041 0.723135C9.62006 0.590437 9.50023 0.484193 9.35842 0.416653ZM8.16675 11.1L5.35008 8.84999C5.20347 8.73235 5.02139 8.66774 4.83342 8.66665H2.33341V5.33332H4.83342C5.02139 5.33223 5.20347 5.26762 5.35008 5.14999L8.16675 2.89999V11.1ZM15.3834 2.28332C15.2265 2.1264 15.0137 2.03824 14.7917 2.03824C14.5698 2.03824 14.357 2.1264 14.2001 2.28332C14.0432 2.44024 13.955 2.65307 13.955 2.87499C13.955 3.0969 14.0432 3.30973 14.2001 3.46665C14.6908 3.9566 15.0742 4.54326 15.326 5.18936C15.5778 5.83546 15.6925 6.52687 15.6627 7.21966C15.6329 7.91246 15.4593 8.59148 15.153 9.21359C14.8467 9.83569 14.4144 10.3873 13.8834 10.8333C13.7545 10.9436 13.6622 11.0906 13.6191 11.2546C13.5759 11.4187 13.5838 11.592 13.6418 11.7515C13.6998 11.9109 13.805 12.0489 13.9435 12.1469C14.082 12.2449 14.2471 12.2983 14.4167 12.3C14.6115 12.3004 14.8002 12.2326 14.9501 12.1083C15.6592 11.5144 16.237 10.7794 16.6466 9.9501C17.0563 9.12079 17.2889 8.2153 17.3297 7.29122C17.3704 6.36713 17.2184 5.44468 16.8834 4.58252C16.5483 3.72036 16.0375 2.93736 15.3834 2.28332ZM13.0251 4.64165C12.9474 4.56395 12.8551 4.50232 12.7536 4.46027C12.6521 4.41822 12.5433 4.39658 12.4334 4.39658C12.3235 4.39658 12.2147 4.41822 12.1132 4.46027C12.0117 4.50232 11.9194 4.56395 11.8417 4.64165C11.764 4.71935 11.7024 4.81159 11.6604 4.91311C11.6183 5.01463 11.5967 5.12344 11.5967 5.23332C11.5967 5.3432 11.6183 5.45201 11.6604 5.55353C11.7024 5.65505 11.764 5.74729 11.8417 5.82499C12.1547 6.13611 12.3316 6.55867 12.3334 6.99999C12.3336 7.24278 12.2808 7.48268 12.1786 7.70291C12.0764 7.92314 11.9273 8.11839 11.7417 8.27499C11.6574 8.34494 11.5876 8.43086 11.5365 8.52782C11.4854 8.62477 11.4539 8.73086 11.4438 8.84001C11.4337 8.94916 11.4453 9.05922 11.4778 9.16389C11.5104 9.26856 11.5632 9.36578 11.6334 9.44999C11.704 9.53376 11.7903 9.60281 11.8876 9.65318C11.9848 9.70356 12.0911 9.73426 12.2002 9.74355C12.3093 9.75284 12.4192 9.74052 12.5236 9.70731C12.6279 9.6741 12.7247 9.62064 12.8084 9.54999C13.181 9.23758 13.4807 8.84744 13.6866 8.40694C13.8925 7.96643 13.9995 7.48622 14.0001 6.99999C13.9954 6.11674 13.6455 5.27036 13.0251 4.64165Z" fill="#00C48C"/>
</svg>
