<svg width="20" height="24" viewBox="0 0 20 24" fill="none" xmlns="http://www.w3.org/2000/svg">
<path d="M18.9166 10.8127C17.996 10.4053 16.6806 10.9513 15.75 12.2713C15.1386 13.138 14.9586 14.372 14.156 14.5007C13.8493 14.5493 13.3333 14.292 13.3333 13.5693V3C13.3333 3 13.3333 1.66667 12 1.66667C10.6666 1.66667 10.6666 3 10.6666 3V10.7553C10.6666 10.736 9.99996 10.7127 9.99996 10.7007V1.33333C9.99996 1.33333 9.99996 0 8.66662 0C7.33329 0 7.33329 1.33333 7.33329 1.33333V10.702C7.33329 10.7133 6.66662 10.7293 6.66662 10.748V2.83333C6.66662 2.83333 6.66662 1.5 5.33329 1.5C3.99996 1.5 3.99996 2.83333 3.99996 2.83333V11.2587C3.99996 11.3373 3.33329 11.426 3.33329 11.524V5.83333C3.33329 5.83333 3.33329 4.5 1.99996 4.5C0.666626 4.5 0.666626 5.83333 0.666626 5.83333V16C0.666626 20.418 4.24863 24 8.66662 24C11.85 24 14.04 22.268 15.264 20.472C16.302 18.9487 16.6033 17.3667 16.6666 16.8887C16.6666 16.8887 16.7486 15.9027 17.4373 14.9787C18.4166 13.666 19.104 12.8747 19.5206 12.4013C19.732 12.1627 19.9373 11.264 18.9166 10.8127Z" fill="#FFDC5D"/>
</svg>
