<svg width="20" height="22" viewBox="0 0 20 22" fill="none" xmlns="http://www.w3.org/2000/svg">
<path d="M8.50007 2.72998C8.67754 2.51617 8.89761 2.34169 9.14625 2.21766C9.39489 2.09362 9.66665 2.02276 9.9442 2.00959C10.2218 1.99642 10.499 2.04122 10.7583 2.14115C11.0175 2.24108 11.2532 2.39394 11.4501 2.58998C11.811 2.96979 12.0085 3.47608 12.0001 3.99998V7.40998C12.0001 7.67519 12.1054 7.92955 12.293 8.11708C12.4805 8.30462 12.7349 8.40998 13.0001 8.40998C13.2653 8.40998 13.5196 8.30462 13.7072 8.11708C13.8947 7.92955 14.0001 7.67519 14.0001 7.40998V3.99998C13.9772 3.19732 13.7133 2.42013 13.2427 1.76951C12.772 1.1189 12.1165 0.624996 11.3613 0.352055C10.6062 0.079114 9.78632 0.039776 9.00848 0.239159C8.23064 0.438542 7.53082 0.867415 7.00007 1.46998C6.88367 1.56205 6.78923 1.67889 6.72359 1.812C6.65795 1.94511 6.62276 2.09116 6.62058 2.23956C6.6184 2.38796 6.64927 2.53498 6.71097 2.66997C6.77267 2.80495 6.86364 2.92451 6.97728 3.01997C7.09092 3.11543 7.22439 3.18439 7.36799 3.22187C7.5116 3.25934 7.66175 3.26437 7.80754 3.23661C7.95334 3.20885 8.09112 3.14898 8.21091 3.06135C8.33069 2.97372 8.42947 2.86052 8.50007 2.72998ZM16.7201 12.27H16.9201C17.1554 12.2743 17.3848 12.1954 17.5677 12.0472C17.7506 11.899 17.8754 11.6911 17.9201 11.46C17.9918 10.9768 18.0185 10.4881 18.0001 9.99998C18.0001 9.73476 17.8947 9.48041 17.7072 9.29287C17.5196 9.10534 17.2653 8.99998 17.0001 8.99998C16.7349 8.99998 16.4805 9.10534 16.293 9.29287C16.1054 9.48041 16.0001 9.73476 16.0001 9.99998C16.0002 10.3694 15.9633 10.7379 15.8901 11.1C15.8658 11.2315 15.8681 11.3666 15.8969 11.4972C15.9257 11.6278 15.9804 11.7513 16.0578 11.8604C16.1352 11.9695 16.2337 12.062 16.3474 12.1323C16.4612 12.2027 16.5879 12.2495 16.7201 12.27ZM19.7201 18.33L1.72007 0.329978C1.62711 0.23625 1.51651 0.161855 1.39465 0.111087C1.27279 0.0603179 1.14208 0.0341797 1.01007 0.0341797C0.878058 0.0341797 0.747353 0.0603179 0.625494 0.111087C0.503634 0.161855 0.393033 0.23625 0.30007 0.329978C0.113819 0.517341 0.00927734 0.770792 0.00927734 1.03498C0.00927734 1.29916 0.113819 1.55262 0.30007 1.73998L6.00007 7.47998V9.99998C6.00079 10.7018 6.18614 11.391 6.53751 11.9985C6.88887 12.606 7.39389 13.1104 8.00184 13.461C8.6098 13.8116 9.2993 13.9961 10.0011 13.9959C10.7029 13.9957 11.3923 13.8109 12.0001 13.46L13.4601 14.92C12.5605 15.555 11.5035 15.9301 10.4049 16.0044C9.30632 16.0787 8.20846 15.8493 7.23157 15.3412C6.25468 14.8332 5.43644 14.0661 4.86646 13.124C4.29648 12.1819 3.99674 11.1011 4.00007 9.99998C4.00007 9.73476 3.89471 9.48041 3.70718 9.29287C3.51964 9.10534 3.26529 8.99998 3.00007 8.99998C2.73485 8.99998 2.4805 9.10534 2.29296 9.29287C2.10543 9.48041 2.00007 9.73476 2.00007 9.99998C2.00184 11.9473 2.71379 13.8271 4.00247 15.2869C5.29114 16.7468 7.06805 17.6866 9.00007 17.93V20H7.00007C6.73485 20 6.4805 20.1053 6.29296 20.2929C6.10543 20.4804 6.00007 20.7348 6.00007 21C6.00007 21.2652 6.10543 21.5195 6.29296 21.7071C6.4805 21.8946 6.73485 22 7.00007 22H13.0001C13.2653 22 13.5196 21.8946 13.7072 21.7071C13.8947 21.5195 14.0001 21.2652 14.0001 21C14.0001 20.7348 13.8947 20.4804 13.7072 20.2929C13.5196 20.1053 13.2653 20 13.0001 20H11.0001V17.93C12.4029 17.7554 13.7328 17.2061 14.8501 16.34L18.2501 19.74C18.437 19.9283 18.6912 20.0346 18.9565 20.0355C19.2219 20.0365 19.4768 19.932 19.6651 19.745C19.8534 19.558 19.9597 19.3039 19.9606 19.0385C19.9616 18.7731 19.857 18.5183 19.6701 18.33H19.7201ZM10.0001 12C9.46964 12 8.96093 11.7893 8.58586 11.4142C8.21078 11.0391 8.00007 10.5304 8.00007 9.99998V9.47998L10.4501 11.94C10.3033 11.9795 10.152 11.9997 10.0001 12Z" fill="url(#paint0_linear_1542_1035)"/>
<defs>
<linearGradient id="paint0_linear_1542_1035" x1="9.98495" y1="0.0341797" x2="9.98495" y2="22" gradientUnits="userSpaceOnUse">
<stop stop-color="#FF5959"/>
<stop offset="1" stop-color="#EF2C2C"/>
</linearGradient>
</defs>
</svg>
