<svg width="14" height="20" viewBox="0 0 14 20" fill="none" xmlns="http://www.w3.org/2000/svg">
<path d="M6.99992 12.4997C7.88397 12.4997 8.73182 12.1485 9.35694 11.5234C9.98206 10.8982 10.3333 10.0504 10.3333 9.16634V4.16634C10.3333 3.28229 9.98206 2.43444 9.35694 1.80932C8.73182 1.1842 7.88397 0.833008 6.99992 0.833008C6.11586 0.833008 5.26802 1.1842 4.6429 1.80932C4.01777 2.43444 3.66658 3.28229 3.66658 4.16634V9.16634C3.66658 10.0504 4.01777 10.8982 4.6429 11.5234C5.26802 12.1485 6.11586 12.4997 6.99992 12.4997ZM5.33325 4.16634C5.33325 3.72431 5.50885 3.30039 5.82141 2.98783C6.13397 2.67527 6.55789 2.49967 6.99992 2.49967C7.44195 2.49967 7.86587 2.67527 8.17843 2.98783C8.49099 3.30039 8.66658 3.72431 8.66658 4.16634V9.16634C8.66658 9.60837 8.49099 10.0323 8.17843 10.3449C7.86587 10.6574 7.44195 10.833 6.99992 10.833C6.55789 10.833 6.13397 10.6574 5.82141 10.3449C5.50885 10.0323 5.33325 9.60837 5.33325 9.16634V4.16634ZM13.6666 9.16634C13.6666 8.94533 13.5788 8.73337 13.4225 8.57709C13.2662 8.4208 13.0543 8.33301 12.8333 8.33301C12.6122 8.33301 12.4003 8.4208 12.244 8.57709C12.0877 8.73337 11.9999 8.94533 11.9999 9.16634C11.9999 10.4924 11.4731 11.7642 10.5355 12.7019C9.59777 13.6396 8.326 14.1663 6.99992 14.1663C5.67384 14.1663 4.40207 13.6396 3.46438 12.7019C2.5267 11.7642 1.99992 10.4924 1.99992 9.16634C1.99992 8.94533 1.91212 8.73337 1.75584 8.57709C1.59956 8.4208 1.3876 8.33301 1.16659 8.33301C0.945571 8.33301 0.73361 8.4208 0.57733 8.57709C0.421049 8.73337 0.333252 8.94533 0.333252 9.16634C0.334723 10.7891 0.92802 12.3556 2.00192 13.5721C3.07581 14.7887 4.55657 15.5718 6.16658 15.7747V17.4997H4.49992C4.2789 17.4997 4.06694 17.5875 3.91066 17.7437C3.75438 17.9 3.66658 18.112 3.66658 18.333C3.66658 18.554 3.75438 18.766 3.91066 18.9223C4.06694 19.0785 4.2789 19.1663 4.49992 19.1663H9.49992C9.72093 19.1663 9.93289 19.0785 10.0892 18.9223C10.2455 18.766 10.3333 18.554 10.3333 18.333C10.3333 18.112 10.2455 17.9 10.0892 17.7437C9.93289 17.5875 9.72093 17.4997 9.49992 17.4997H7.83325V15.7747C9.44327 15.5718 10.924 14.7887 11.9979 13.5721C13.0718 12.3556 13.6651 10.7891 13.6666 9.16634Z" fill="#00C48C"/>
</svg>
