<svg width="18" height="14" viewBox="0 0 18 14" fill="none" xmlns="http://www.w3.org/2000/svg">
<path d="M9.35835 0.417141C9.22302 0.358593 9.07458 0.337001 8.92818 0.354569C8.78178 0.372137 8.64266 0.428236 8.52502 0.517141L4.54169 3.66714H1.50002C1.27901 3.66714 1.06704 3.75494 0.910765 3.91122C0.754484 4.0675 0.666687 4.27946 0.666687 4.50047V9.50047C0.666687 9.72149 0.754484 9.93345 0.910765 10.0897C1.06704 10.246 1.27901 10.3338 1.50002 10.3338H4.54169L8.48335 13.4838C8.62997 13.6014 8.81205 13.6661 9.00002 13.6671C9.12449 13.6692 9.24756 13.6406 9.35835 13.5838C9.50016 13.5163 9.62 13.41 9.70404 13.2773C9.78808 13.1446 9.83291 12.9909 9.83335 12.8338V1.16714C9.83291 1.01007 9.78808 0.856321 9.70404 0.723623C9.62 0.590925 9.50016 0.484681 9.35835 0.417141ZM8.16669 11.1005L5.35002 8.85048C5.2034 8.73284 5.02132 8.66823 4.83335 8.66714H2.33335V5.33381H4.83335C5.02132 5.33272 5.2034 5.26811 5.35002 5.15047L8.16669 2.90047V11.1005ZM15.3834 2.28381C15.2264 2.12689 15.0136 2.03873 14.7917 2.03873C14.5698 2.03873 14.3569 2.12689 14.2 2.28381C14.0431 2.44073 13.9549 2.65356 13.9549 2.87547C13.9549 3.09739 14.0431 3.31022 14.2 3.46714C14.6907 3.95709 15.0742 4.54375 15.326 5.18985C15.5778 5.83595 15.6924 6.52736 15.6626 7.22015C15.6328 7.91294 15.4593 8.59196 15.153 9.21407C14.8467 9.83618 14.4143 10.3878 13.8834 10.8338C13.7544 10.9441 13.6622 11.091 13.619 11.2551C13.5758 11.4192 13.5838 11.5925 13.6417 11.752C13.6997 11.9114 13.805 12.0494 13.9435 12.1474C14.0819 12.2454 14.247 12.2988 14.4167 12.3005C14.6114 12.3009 14.8001 12.233 14.95 12.1088C15.6591 11.5149 16.2369 10.7799 16.6466 9.95059C17.0562 9.12127 17.2888 8.21579 17.3296 7.2917C17.3704 6.36762 17.2184 5.44517 16.8833 4.58301C16.5482 3.72085 16.0374 2.93785 15.3834 2.28381ZM13.025 4.64214C12.9473 4.56444 12.8551 4.50281 12.7536 4.46076C12.652 4.41871 12.5432 4.39706 12.4334 4.39706C12.3235 4.39706 12.2147 4.41871 12.1131 4.46076C12.0116 4.50281 11.9194 4.56444 11.8417 4.64214C11.764 4.71984 11.7024 4.81208 11.6603 4.9136C11.6183 5.01512 11.5966 5.12393 11.5966 5.23381C11.5966 5.34369 11.6183 5.4525 11.6603 5.55402C11.7024 5.65553 11.764 5.74778 11.8417 5.82547C12.1547 6.1366 12.3315 6.55916 12.3334 7.00047C12.3336 7.24326 12.2807 7.48317 12.1785 7.7034C12.0763 7.92363 11.9272 8.11888 11.7417 8.27547C11.6573 8.34543 11.5876 8.43135 11.5364 8.52831C11.4853 8.62526 11.4538 8.73135 11.4437 8.8405C11.4337 8.94965 11.4452 9.05971 11.4778 9.16438C11.5103 9.26905 11.5632 9.36627 11.6334 9.45047C11.7039 9.53425 11.7903 9.6033 11.8875 9.65367C11.9848 9.70405 12.091 9.73475 12.2001 9.74404C12.3093 9.75333 12.4191 9.74101 12.5235 9.7078C12.6279 9.67459 12.7247 9.62113 12.8084 9.55048C13.1809 9.23807 13.4807 8.84793 13.6865 8.40743C13.8924 7.96692 13.9994 7.48671 14 7.00047C13.9953 6.11723 13.6454 5.27085 13.025 4.64214Z" fill="#959595"/>
</svg>
