<svg width="40" height="40" viewBox="0 0 40 40" fill="none" xmlns="http://www.w3.org/2000/svg">
<path d="M32.5 13.3333V34.1666C32.5 35.0875 31.7542 35.8333 30.8333 35.8333H9.16667C8.24583 35.8333 7.5 35.0875 7.5 34.1666V5.83329C7.5 4.91246 8.24583 4.16663 9.16667 4.16663H23.3333L32.5 13.3333Z" fill="#FFADC8"/>
<path d="M23.3335 4.16663V11.6666C23.3335 12.5875 24.0793 13.3333 25.0002 13.3333H32.5002L23.3335 4.16663Z" fill="url(#paint0_linear_3831_12371)"/>
<path d="M13.3334 31.6666C13.0001 31.6666 12.7501 31.5833 12.5001 31.5C11.5834 31 11.5001 30.25 11.6667 29.6666C12.0001 28.6666 13.8334 27.4166 16.2501 26.3333C17.3334 24.3333 18.1667 22.25 18.6667 20.5C17.8334 18.9166 17.4167 17.4166 17.4167 16.3333C17.4167 15.75 17.5834 15.25 17.8334 14.8333C18.1667 14.4166 18.6667 14.1666 19.3334 14.1666C20.0834 14.1666 20.6667 14.5833 20.9167 15.3333C21.3334 16.3333 21.0834 18.1666 20.5001 20.25C21.3334 21.6666 22.3334 23 23.4167 24C25.0001 23.6666 26.4167 23.5 27.3334 23.6666C28.9167 23.9166 29.1667 25 29.1667 25.4166C29.1667 27.1666 27.3334 27.1666 26.6667 27.1666C25.4167 27.1666 24.1667 26.6666 23.0834 25.75C21.0834 26.25 19.0834 26.9166 17.5001 27.6666C16.6667 29.0833 15.8334 30.25 15.0834 30.9166C14.3334 31.5 13.7501 31.6666 13.3334 31.6666ZM14.3334 29.25C13.9167 29.5 13.5834 29.75 13.4167 30C13.5834 29.9166 13.9167 29.75 14.3334 29.25ZM25.6667 25.3333C26.0001 25.4166 26.3334 25.5 26.6667 25.5C27.1667 25.5 27.4167 25.4166 27.5001 25.4166C27.4167 25.3333 26.8334 25.1666 25.6667 25.3333ZM19.8334 22.3333C19.5001 23.3333 19.0001 24.4166 18.5834 25.4166C19.5834 25.0833 20.5834 24.75 21.5834 24.5C20.9167 23.8333 20.3334 23.0833 19.8334 22.3333ZM19.3334 15.8333C19.2501 15.8333 19.2501 15.8333 19.2501 15.8333C19.1667 15.9166 19.0834 16.5 19.4167 17.75C19.5001 16.75 19.5001 16 19.3334 15.8333Z" fill="#E52030"/>
<defs>
<linearGradient id="paint0_linear_3831_12371" x1="23.8743" y1="12.7925" x2="27.9593" y2="8.70746" gradientUnits="userSpaceOnUse">
<stop stop-color="#F44F5A"/>
<stop offset="0.337" stop-color="#F34C57"/>
<stop offset="0.595" stop-color="#F0424F"/>
<stop offset="0.825" stop-color="#EB3240"/>
<stop offset="1" stop-color="#E52030"/>
</linearGradient>
</defs>
</svg>
