<svg width="18" height="18" viewBox="0 0 18 18" fill="none" xmlns="http://www.w3.org/2000/svg">
<path d="M9.00002 0.666992C4.40002 0.666992 0.666687 4.40033 0.666687 9.00033C0.666687 13.6003 4.40002 17.3337 9.00002 17.3337C13.6 17.3337 17.3334 13.6003 17.3334 9.00033C17.3334 4.40033 13.6 0.666992 9.00002 0.666992ZM6.74169 12.5753L3.75002 9.58366C3.42502 9.25866 3.42502 8.73366 3.75002 8.40866C4.07502 8.08366 4.60002 8.08366 4.92502 8.40866L7.33335 10.8087L13.0667 5.07533C13.3917 4.75033 13.9167 4.75033 14.2417 5.07533C14.5667 5.40033 14.5667 5.92533 14.2417 6.25033L7.91669 12.5753C7.60002 12.9003 7.06669 12.9003 6.74169 12.5753Z" fill="#4877EF"/>
</svg>
