<svg width="40" height="40" viewBox="0 0 40 40" fill="none" xmlns="http://www.w3.org/2000/svg">
<path d="M34.1122 31.6667H5.88752C4.93683 31.6667 4.1665 30.8897 4.1665 29.9306V8.40286C4.1665 7.44383 4.93683 6.66675 5.88752 6.66675H13.871C14.9166 6.66675 15.9052 7.14591 16.5585 7.97022L18.2788 10.139H34.1122C35.0628 10.139 35.8332 10.9161 35.8332 11.8751V29.9306C35.8332 30.8897 35.0628 31.6667 34.1122 31.6667Z" fill="url(#paint0_linear_3831_12339)"/>
<path d="M5 20.8333H18.3333V10.8333H6.33333C5.59667 10.8333 5 11.4725 5 12.2618V20.8333Z" fill="url(#paint1_linear_3831_12339)"/>
<path d="M5 21.6667H18.3333V11.6667H6.33333C5.59667 11.6667 5 12.306 5 13.0953V21.6667Z" fill="url(#paint2_linear_3831_12339)"/>
<path d="M4.1665 29.1667V29.6667C4.1665 30.7715 4.93683 31.6667 5.88752 31.6667H34.1122C35.0628 31.6667 35.8332 30.7715 35.8332 29.6667V29.1667H4.1665Z" fill="url(#paint3_linear_3831_12339)"/>
<path d="M34.1122 10.8333H18.2788L17.4273 11.4015C16.6363 11.9305 15.7063 12.2126 14.7549 12.2126H5.88752C4.93683 12.2126 4.1665 12.9843 4.1665 13.9367V29.1091C4.1665 30.0615 4.93683 30.8333 5.88752 30.8333H34.1122C35.0628 30.8333 35.8332 30.0615 35.8332 29.1091V12.5574C35.8332 11.605 35.0628 10.8333 34.1122 10.8333Z" fill="url(#paint4_linear_3831_12339)"/>
<path d="M34.1122 30.8334H5.88752C4.93683 30.8334 4.1665 30.0674 4.1665 29.1221V14.7471C4.1665 13.8018 4.93683 13.0358 5.88752 13.0358H15.013C15.9644 13.0358 16.8944 12.7558 17.6861 12.2308L18.537 11.6667H34.1122C35.0628 11.6667 35.8332 12.4327 35.8332 13.3781V29.1221C35.8332 30.0674 35.0628 30.8334 34.1122 30.8334Z" fill="url(#paint5_radial_3831_12339)"/>
<defs>
<linearGradient id="paint0_linear_3831_12339" x1="-1.35313" y1="9.65841" x2="30.7112" y2="26.2516" gradientUnits="userSpaceOnUse">
<stop stop-color="#FAC017"/>
<stop offset="0.909" stop-color="#E1AB2D"/>
</linearGradient>
<linearGradient id="paint1_linear_3831_12339" x1="7.56733" y1="9.58611" x2="16.8697" y2="21.936" gradientUnits="userSpaceOnUse">
<stop stop-color="#FBFEF3"/>
<stop offset="0.909" stop-color="#E2E4E3"/>
</linearGradient>
<linearGradient id="paint2_linear_3831_12339" x1="5" y1="16.6667" x2="18.3333" y2="16.6667" gradientUnits="userSpaceOnUse">
<stop stop-color="#FBFEF3"/>
<stop offset="0.909" stop-color="#E2E4E3"/>
</linearGradient>
<linearGradient id="paint3_linear_3831_12339" x1="15.0881" y1="30.2963" x2="34.4339" y2="30.5955" gradientUnits="userSpaceOnUse">
<stop stop-color="#E3A917"/>
<stop offset="0.464" stop-color="#D79C1E"/>
</linearGradient>
<linearGradient id="paint4_linear_3831_12339" x1="0.119366" y1="12.0498" x2="28.2553" y2="24.4356" gradientUnits="userSpaceOnUse">
<stop offset="0.34" stop-color="#FFEFB2"/>
<stop offset="0.485" stop-color="#FFEDAD"/>
<stop offset="0.652" stop-color="#FFE99F"/>
<stop offset="0.828" stop-color="#FEE289"/>
<stop offset="1" stop-color="#FED86B"/>
</linearGradient>
<radialGradient id="paint5_radial_3831_12339" cx="0" cy="0" r="1" gradientUnits="userSpaceOnUse" gradientTransform="translate(29.5246 37.2111) scale(37.0879 36.8787)">
<stop offset="0.199" stop-color="#FEC832"/>
<stop offset="0.601" stop-color="#FCD667"/>
<stop offset="0.68" stop-color="#FDDA75"/>
<stop offset="0.886" stop-color="#FEE496"/>
<stop offset="1" stop-color="#FFE8A2"/>
</radialGradient>
</defs>
</svg>
