<svg width="14" height="14" viewBox="0 0 14 14" fill="none" xmlns="http://www.w3.org/2000/svg">
<path d="M12.8333 6.16658H7.83334V1.16659C7.83334 0.945571 7.74555 0.73361 7.58926 0.57733C7.43298 0.421049 7.22102 0.333252 7.00001 0.333252C6.779 0.333252 6.56703 0.421049 6.41075 0.57733C6.25447 0.73361 6.16668 0.945571 6.16668 1.16659V6.16658H1.16668C0.945663 6.16658 0.733702 6.25438 0.577421 6.41066C0.421141 6.56694 0.333344 6.7789 0.333344 6.99992C0.333344 7.22093 0.421141 7.43289 0.577421 7.58917C0.733702 7.74545 0.945663 7.83325 1.16668 7.83325H6.16668V12.8333C6.16668 13.0543 6.25447 13.2662 6.41075 13.4225C6.56703 13.5788 6.779 13.6666 7.00001 13.6666C7.22102 13.6666 7.43298 13.5788 7.58926 13.4225C7.74555 13.2662 7.83334 13.0543 7.83334 12.8333V7.83325H12.8333C13.0544 7.83325 13.2663 7.74545 13.4226 7.58917C13.5789 7.43289 13.6667 7.22093 13.6667 6.99992C13.6667 6.7789 13.5789 6.56694 13.4226 6.41066C13.2663 6.25438 13.0544 6.16658 12.8333 6.16658Z" fill="white"/>
</svg>
