<svg width="51" height="50" viewBox="0 0 51 50" fill="none" xmlns="http://www.w3.org/2000/svg">
<path d="M2.14921 1.68068C1.21553 1.75905 0.5 2.54275 0.5 3.47448V44.8276C0.5 45.7071 1.12827 46.456 1.99215 46.604L20.9014 49.9652C21.4337 50.061 21.9747 49.913 22.3848 49.5734C22.7949 49.2251 23.0305 48.72 23.0305 48.1888V1.81129C23.0305 1.29753 22.8211 0.818608 22.4459 0.479005C22.0707 0.130695 21.5733 -0.0347529 21.0585 0.00878588L2.14921 1.68068ZM18.0742 27.4731C17.2976 27.4731 16.6606 26.3672 16.6606 25.0001C16.6606 23.6329 17.2888 22.5271 18.0742 22.5271C18.8508 22.5271 19.4878 23.6329 19.4878 25.0001C19.4878 26.3585 18.8595 27.4731 18.0742 27.4731Z" fill="#DCDCDC"/>
<path d="M50.4996 24.0335L35.7177 13.0791V18.7566H24.2256V29.232H35.7177V34.9095L50.4996 24.0335Z" fill="#9E9E9E"/>
<path d="M16.6689 25.0003C16.6689 26.3674 17.2972 27.4733 18.0826 27.4733C18.8592 27.4733 19.4962 26.3674 19.4962 25.0003C19.4962 23.6332 18.8679 22.5273 18.0826 22.5273C17.2972 22.5273 16.6689 23.6332 16.6689 25.0003Z" fill="white"/>
<path d="M34.4263 17.146V3.01328C34.4263 2.63884 34.2779 2.28183 34.0162 2.02059C33.7544 1.75936 33.3879 1.61133 33.0214 1.61133H24.2256V4.42394H31.5991V17.1547H34.4263V17.146Z" fill="#DCDCDC"/>
<path d="M24.2256 45.5764V48.389H33.0127C33.3792 48.389 33.7457 48.241 34.0074 47.9798C34.2692 47.7185 34.4176 47.3528 34.4176 46.9871V30.7559H31.5991V45.5764H24.2256Z" fill="#DCDCDC"/>
</svg>
