<svg width="18" height="20" viewBox="0 0 18 20" fill="none" xmlns="http://www.w3.org/2000/svg">
<path fill-rule="evenodd" clip-rule="evenodd" d="M8.99996 0.833252C7.45287 0.833252 5.96914 1.44783 4.87517 2.5418C3.78121 3.63576 3.16663 5.11949 3.16663 6.66659C3.16663 9.46047 2.56907 11.1954 2.01838 12.205C1.74189 12.712 1.47265 13.0445 1.28563 13.2419C1.1919 13.3408 1.11824 13.4064 1.0739 13.4434C1.05171 13.4619 1.03684 13.4732 1.03042 13.478L1.02804 13.4798C0.7293 13.685 0.597101 14.0603 0.702386 14.4081C0.808802 14.7595 1.13274 14.9999 1.49996 14.9999H16.5C16.8672 14.9999 17.1911 14.7595 17.2975 14.4081C17.4028 14.0603 17.2706 13.685 16.9719 13.4798L16.9695 13.478C16.9631 13.4732 16.9482 13.4619 16.926 13.4434C16.8817 13.4064 16.808 13.3408 16.7143 13.2419C16.5273 13.0445 16.258 12.712 15.9815 12.205C15.4309 11.1954 14.8333 9.46047 14.8333 6.66659C14.8333 5.11949 14.2187 3.63576 13.1248 2.5418C12.0308 1.44783 10.5471 0.833252 8.99996 0.833252ZM14.5184 13.0031C14.5818 13.1194 14.6455 13.2294 14.7089 13.3333H3.29107C3.35447 13.2294 3.41813 13.1194 3.48154 13.0031C4.18085 11.7211 4.8333 9.70604 4.8333 6.66659C4.8333 5.56152 5.27228 4.50171 6.05369 3.72031C6.83509 2.93891 7.8949 2.49992 8.99996 2.49992C10.105 2.49992 11.1648 2.93891 11.9462 3.72031C12.7276 4.50171 13.1666 5.56152 13.1666 6.66659C13.1666 9.70604 13.8191 11.7211 14.5184 13.0031ZM8.27914 17.0818C8.04821 16.6837 7.53827 16.5482 7.14017 16.7791C6.74206 17.0101 6.60654 17.52 6.83748 17.9181C7.05724 18.2969 7.37267 18.6114 7.75219 18.83C8.13171 19.0486 8.562 19.1637 8.99998 19.1637C9.43795 19.1637 9.86824 19.0486 10.2478 18.83C10.6273 18.6114 10.9427 18.2969 11.1625 17.9181C11.3934 17.52 11.2579 17.0101 10.8598 16.7791C10.4617 16.5482 9.95174 16.6837 9.72081 17.0818C9.64755 17.2081 9.54241 17.3129 9.4159 17.3858C9.2894 17.4586 9.14597 17.497 8.99998 17.497C8.85398 17.497 8.71055 17.4586 8.58405 17.3858C8.45754 17.3129 8.3524 17.2081 8.27914 17.0818Z" fill="black"/>
</svg>
