<svg width="40" height="40" viewBox="0 0 40 40" fill="none" xmlns="http://www.w3.org/2000/svg">
<path d="M32.5 13.3333V34.1666C32.5 35.0875 31.7542 35.8333 30.8333 35.8333H9.16667C8.24583 35.8333 7.5 35.0875 7.5 34.1666V5.83329C7.5 4.91246 8.24583 4.16663 9.16667 4.16663H23.3333L25.8333 10.8333L32.5 13.3333Z" fill="#50E6FF"/>
<path d="M23.3335 4.16663V11.6666C23.3335 12.5875 24.0793 13.3333 25.0002 13.3333H32.5002L23.3335 4.16663Z" fill="url(#paint0_linear_3831_12384)"/>
<path d="M27.0833 20H12.9167C12.6867 20 12.5 19.8134 12.5 19.5834V18.75C12.5 18.52 12.6867 18.3334 12.9167 18.3334H27.0833C27.3133 18.3334 27.5 18.52 27.5 18.75V19.5834C27.5 19.8134 27.3133 20 27.0833 20Z" fill="#057093"/>
<path d="M25.4167 23.3333H12.9167C12.6867 23.3333 12.5 23.1466 12.5 22.9166V22.0833C12.5 21.8533 12.6867 21.6666 12.9167 21.6666H25.4167C25.6467 21.6666 25.8333 21.8533 25.8333 22.0833V22.9166C25.8333 23.1466 25.6467 23.3333 25.4167 23.3333Z" fill="#057093"/>
<path d="M27.0833 26.6667H12.9167C12.6867 26.6667 12.5 26.48 12.5 26.25V25.4167C12.5 25.1867 12.6867 25 12.9167 25H27.0833C27.3133 25 27.5 25.1867 27.5 25.4167V26.25C27.5 26.48 27.3133 26.6667 27.0833 26.6667Z" fill="#057093"/>
<path d="M25.4167 30H12.9167C12.6867 30 12.5 29.8134 12.5 29.5834V28.75C12.5 28.52 12.6867 28.3334 12.9167 28.3334H25.4167C25.6467 28.3334 25.8333 28.52 25.8333 28.75V29.5834C25.8333 29.8134 25.6467 30 25.4167 30Z" fill="#057093"/>
<defs>
<linearGradient id="paint0_linear_3831_12384" x1="23.7743" y1="12.8925" x2="28.0002" y2="8.66663" gradientUnits="userSpaceOnUse">
<stop stop-color="#3079D6"/>
<stop offset="1" stop-color="#297CD2"/>
</linearGradient>
</defs>
</svg>
