<svg width="17" height="22" viewBox="0 0 17 22" fill="none" xmlns="http://www.w3.org/2000/svg">
<path d="M4.00006 22H6.00006V20H4.00006V22ZM8.00006 22H10.0001V20H8.00006V22ZM9.00006 0C8.45006 0 8.00006 0.45 8.00006 1V9C8.00006 9.55 8.45006 10 9.00006 10C9.55006 10 10.0001 9.55 10.0001 9V1C10.0001 0.45 9.55006 0 9.00006 0ZM12.9401 3.06L12.9201 3.08C12.5101 3.49 12.5601 4.16 13.0001 4.54C14.5101 5.88 15.3301 7.97 14.8801 10.24C14.4201 12.52 12.5901 14.38 10.3201 14.86C6.43006 15.69 3.00006 12.74 3.00006 9C3.00006 7.22 3.78006 5.63 5.01006 4.53C5.44006 4.14 5.48006 3.49 5.08006 3.08L5.06006 3.06C4.69006 2.69 4.10006 2.67 3.70006 3.02C1.69006 4.79 0.580057 7.55 1.14006 10.54C1.73006 13.69 4.25006 16.24 7.40006 16.85C12.5201 17.84 17.0001 13.95 17.0001 9C17.0001 6.62 15.9501 4.48 14.2901 3.01C13.9001 2.67 13.3101 2.69 12.9401 3.06ZM12.0001 22H14.0001V20H12.0001V22Z" fill="white"/>
</svg>
