<svg width="21" height="20" viewBox="0 0 21 20" fill="none" xmlns="http://www.w3.org/2000/svg">
<path d="M14.5501 7.00005C14.6746 7.04746 14.8069 7.0712 14.9401 7.07005H18.9401C19.2053 7.07005 19.4597 6.96469 19.6472 6.77716C19.8347 6.58962 19.9401 6.33527 19.9401 6.07005C19.9401 5.80483 19.8347 5.55048 19.6472 5.36294C19.4597 5.17541 19.2053 5.07005 18.9401 5.07005H17.3501L20.6401 1.78005C20.7448 1.6904 20.8298 1.58009 20.8898 1.45602C20.9499 1.33196 20.9836 1.19682 20.9889 1.0591C20.9942 0.921386 20.971 0.784054 20.9207 0.655728C20.8705 0.527403 20.7942 0.410856 20.6968 0.313401C20.5993 0.215946 20.4827 0.139688 20.3544 0.0894138C20.2261 0.0391392 20.0888 0.0159335 19.951 0.021253C19.8133 0.0265725 19.6782 0.0603024 19.5541 0.120326C19.4301 0.180349 19.3197 0.26537 19.2301 0.370051L15.9401 3.65005V2.06005C15.9401 1.79483 15.8347 1.54048 15.6472 1.35294C15.4597 1.16541 15.2053 1.06005 14.9401 1.06005C14.6749 1.06005 14.4205 1.16541 14.233 1.35294C14.0455 1.54048 13.9401 1.79483 13.9401 2.06005V6.06005C13.939 6.19328 13.9627 6.32554 14.0101 6.45005C14.0592 6.57289 14.1323 6.68476 14.225 6.77917C14.3177 6.87358 14.4282 6.94866 14.5501 7.00005ZM18.4401 11.0001C18.2201 11.0001 17.9901 10.9301 17.7701 10.8801C17.3246 10.7819 16.8868 10.6515 16.4601 10.4901C15.9962 10.3213 15.4862 10.33 15.0284 10.5147C14.5706 10.6993 14.1972 11.0467 13.9801 11.4901L13.7601 11.9401C12.7861 11.3982 11.8911 10.7253 11.1001 9.94005C10.3149 9.14907 9.64192 8.25405 9.1001 7.28005L9.5201 7.00005C9.96347 6.78297 10.3109 6.40958 10.4955 5.95174C10.6801 5.4939 10.6889 4.98396 10.5201 4.52005C10.3613 4.09247 10.231 3.65485 10.1301 3.21005C10.0801 2.99005 10.0401 2.76005 10.0101 2.53005C9.88867 1.82567 9.51973 1.18779 8.96972 0.731291C8.41972 0.274788 7.7248 0.0296602 7.0101 0.0400513H4.0101C3.57913 0.0360048 3.15235 0.124865 2.75881 0.300582C2.36527 0.476299 2.01421 0.734747 1.72953 1.05833C1.44485 1.38192 1.23324 1.76305 1.10909 2.17577C0.984942 2.58849 0.95118 3.02311 1.0101 3.45005C1.54284 7.63943 3.45613 11.5319 6.44775 14.5127C9.43938 17.4934 13.3388 19.3926 17.5301 19.9101H17.9101C18.6475 19.9111 19.3595 19.6406 19.9101 19.1501C20.2265 18.8671 20.4792 18.5202 20.6516 18.1324C20.8239 17.7445 20.9121 17.3245 20.9101 16.9001V13.9001C20.8979 13.2054 20.6449 12.5366 20.1944 12.0077C19.744 11.4788 19.1239 11.1227 18.4401 11.0001ZM18.9401 17.0001C18.9399 17.142 18.9095 17.2824 18.8509 17.4117C18.7923 17.541 18.7068 17.6563 18.6001 17.7501C18.4884 17.8465 18.3577 17.9186 18.2165 17.9616C18.0753 18.0047 17.9267 18.0178 17.7801 18.0001C14.035 17.5199 10.5563 15.8065 7.89282 13.1303C5.2293 10.4541 3.53251 6.96739 3.0701 3.22005C3.05419 3.07357 3.06813 2.92538 3.1111 2.78444C3.15407 2.6435 3.22517 2.51274 3.3201 2.40005C3.41381 2.29338 3.52916 2.20789 3.65848 2.14927C3.7878 2.09064 3.92812 2.06023 4.0701 2.06005H7.0701C7.30265 2.05488 7.52972 2.13093 7.71224 2.27512C7.89476 2.41931 8.02131 2.62262 8.0701 2.85005C8.1101 3.12338 8.1601 3.39338 8.2201 3.66005C8.33562 4.1872 8.48936 4.70523 8.6801 5.21005L7.2801 5.86005C7.1604 5.91497 7.05272 5.993 6.96326 6.08965C6.87379 6.1863 6.8043 6.29967 6.75877 6.42325C6.71324 6.54683 6.69257 6.67818 6.69795 6.80977C6.70332 6.94136 6.73464 7.0706 6.7901 7.19005C8.2293 10.2728 10.7073 12.7509 13.7901 14.1901C14.0336 14.2901 14.3066 14.2901 14.5501 14.1901C14.6748 14.1454 14.7894 14.0765 14.8873 13.9872C14.9851 13.898 15.0643 13.7902 15.1201 13.6701L15.7401 12.2701C16.2571 12.4549 16.7847 12.6085 17.3201 12.7301C17.5868 12.7901 17.8568 12.8401 18.1301 12.8801C18.3575 12.9288 18.5608 13.0554 18.705 13.2379C18.8492 13.4204 18.9253 13.6475 18.9201 13.8801L18.9401 17.0001Z" fill="white"/>
</svg>
