<svg width="14" height="14" viewBox="0 0 14 14" fill="none" xmlns="http://www.w3.org/2000/svg">
<path d="M7.00004 13.6663C10.6758 13.6663 13.6667 10.6758 13.6667 6.99967C13.6667 5.21745 12.9736 3.54305 11.7151 2.28464C10.4564 1.0261 8.78227 0.333008 7.00004 0.333008C3.32396 0.333008 0.333374 3.3236 0.333374 6.99967C0.333374 8.7819 1.02646 10.4563 2.28501 11.7147C3.54342 12.9733 5.21781 13.6663 7.00004 13.6663ZM7.00004 12.5552C5.70176 12.5552 4.47224 12.1139 3.48279 11.3025L11.3029 3.48242C12.1142 4.47187 12.5556 5.70139 12.5556 6.99967C12.5556 10.063 10.0633 12.5552 7.00004 12.5552ZM7.00004 1.44412C8.29806 1.44412 9.52785 1.88547 10.517 2.69683L2.6972 10.5169C1.88584 9.52748 1.44449 8.29796 1.44449 6.99967C1.44449 3.93639 3.93675 1.44412 7.00004 1.44412Z" fill="#959595"/>
</svg>
