<svg width="21" height="21" viewBox="0 0 21 21" fill="none" xmlns="http://www.w3.org/2000/svg">
<path d="M0.999964 7.10003C1.26518 7.10003 1.51953 6.99467 1.70707 6.80714C1.89461 6.6196 1.99996 6.36524 1.99996 6.10003V5.91003C1.99996 5.64481 1.89461 5.39046 1.70707 5.20292C1.51953 5.01539 1.26518 4.91003 0.999964 4.91003C0.734748 4.91003 0.480394 5.01539 0.292857 5.20292C0.105321 5.39046 -3.56898e-05 5.64481 -3.56898e-05 5.91003V6.10003C-3.56898e-05 6.36524 0.105321 6.6196 0.292857 6.80714C0.480394 6.99467 0.734748 7.10003 0.999964 7.10003ZM0.999964 3.10003C1.14558 3.09767 1.28892 3.06355 1.41996 3.00003C1.68518 2.95759 1.92268 2.81154 2.08021 2.594C2.23774 2.37646 2.3024 2.10524 2.25996 1.84003C2.21753 1.57481 2.07148 1.33731 1.85393 1.17978C1.63639 1.02225 1.36518 0.957593 1.09996 1.00003H0.999964C0.725016 1.02279 0.468926 1.14896 0.283343 1.3531C0.0977606 1.55724 -0.00350703 1.82416 -3.56898e-05 2.10003C0.0128029 2.35648 0.123801 2.59817 0.309964 2.77503C0.496127 2.95188 0.743188 3.05035 0.999964 3.05003V3.10003ZM18.39 2.91003C18.5458 3.03241 18.7345 3.10575 18.932 3.12072C19.1296 3.1357 19.3272 3.09165 19.4997 2.99415C19.6722 2.89665 19.8118 2.75011 19.9009 2.57311C19.99 2.39612 20.0244 2.19665 20 2.00003C20 1.73481 19.8946 1.48046 19.7071 1.29292C19.5195 1.10538 19.2652 1.00003 19 1.00003H18.9C18.6809 1.00009 18.4679 1.0721 18.2937 1.205C18.1195 1.33789 17.9938 1.52431 17.9359 1.73559C17.8779 1.94688 17.891 2.17135 17.973 2.3745C18.0551 2.57765 18.2015 2.74823 18.39 2.86003V2.91003ZM9.88997 3.00003H10.11C10.3752 3.00003 10.6295 2.89467 10.8171 2.70713C11.0046 2.5196 11.11 2.26524 11.11 2.00003C11.11 1.73481 11.0046 1.48046 10.8171 1.29292C10.6295 1.10538 10.3752 1.00003 10.11 1.00003H9.88997C9.62475 1.00003 9.37039 1.10538 9.18286 1.29292C8.99532 1.48046 8.88997 1.73481 8.88997 2.00003C8.88997 2.26524 8.99532 2.5196 9.18286 2.70713C9.37039 2.89467 9.62475 3.00003 9.88997 3.00003ZM5.38996 3.00003H5.59996C5.86518 3.00003 6.11953 2.89467 6.30707 2.70713C6.49461 2.5196 6.59996 2.26524 6.59996 2.00003C6.59996 1.73481 6.49461 1.48046 6.30707 1.29292C6.11953 1.10538 5.86518 1.00003 5.59996 1.00003H5.38996C5.12475 1.00003 4.87039 1.10538 4.68286 1.29292C4.49532 1.48046 4.38996 1.73481 4.38996 2.00003C4.38996 2.26524 4.49532 2.5196 4.68286 2.70713C4.87039 2.89467 5.12475 3.00003 5.38996 3.00003ZM19 19C18.8544 19.0024 18.711 19.0365 18.58 19.1C18.3821 19.1928 18.2201 19.3477 18.1187 19.5412C18.0173 19.7347 17.982 19.9561 18.0183 20.1716C18.0546 20.387 18.1604 20.5847 18.3196 20.7343C18.4788 20.8839 18.6827 20.9772 18.9 21H19C19.2749 20.9773 19.531 20.8511 19.7166 20.647C19.9022 20.4428 20.0034 20.1759 20 19.9C19.9751 19.6525 19.8589 19.4231 19.6739 19.2567C19.489 19.0903 19.2487 18.9988 19 19ZM12 10C12 9.73481 11.8946 9.48046 11.7071 9.29292C11.5195 9.10538 11.2652 9.00003 11 9.00003H1.26996C1.18032 8.98873 1.08961 8.98873 0.999964 9.00003C0.734748 9.00003 0.480394 9.10538 0.292857 9.29292C0.105321 9.48046 -3.56898e-05 9.73481 -3.56898e-05 10V20C-3.56898e-05 20.2652 0.105321 20.5196 0.292857 20.7071C0.480394 20.8947 0.734748 21 0.999964 21H11.1C11.2672 20.9988 11.4315 20.9556 11.5777 20.8744C11.724 20.7932 11.8476 20.6767 11.9371 20.5354C12.0266 20.3941 12.0793 20.2326 12.0903 20.0657C12.1013 19.8988 12.0702 19.7318 12 19.58V10ZM9.99996 19H3.51996L7.42996 15.1C7.46067 15.0689 7.49725 15.0442 7.53759 15.0273C7.57794 15.0104 7.62123 15.0017 7.66496 15.0017C7.7087 15.0017 7.75199 15.0104 7.79233 15.0273C7.83268 15.0442 7.86926 15.0689 7.89996 15.1L9.99996 17.19V19ZM9.99996 14.37L9.31996 13.68C8.87981 13.2434 8.28495 12.9984 7.66496 12.9984C7.04498 12.9984 6.45012 13.2434 6.00996 13.68L2.00996 17.68V11H10.01L9.99996 14.37ZM19 14.37C18.7347 14.37 18.4804 14.4754 18.2929 14.6629C18.1053 14.8505 18 15.1048 18 15.37V15.58C18 15.8452 18.1053 16.0996 18.2929 16.2871C18.4804 16.4747 18.7347 16.58 19 16.58C19.2652 16.58 19.5195 16.4747 19.7071 16.2871C19.8946 16.0996 20 15.8452 20 15.58V15.4C20 15.1348 19.8946 14.8805 19.7071 14.6929C19.5195 14.5054 19.2652 14.4 19 14.4V14.37ZM19 5.37003C18.7347 5.37003 18.4804 5.47539 18.2929 5.66292C18.1053 5.85046 18 6.10481 18 6.37003V6.60003C18 6.86524 18.1053 7.1196 18.2929 7.30714C18.4804 7.49467 18.7347 7.60003 19 7.60003C19.2652 7.60003 19.5195 7.49467 19.7071 7.30714C19.8946 7.1196 20 6.86524 20 6.60003V6.39003C20 6.12481 19.8946 5.87046 19.7071 5.68292C19.5195 5.49539 19.2652 5.39003 19 5.39003V5.37003ZM19 9.87003C18.7347 9.87003 18.4804 9.97538 18.2929 10.1629C18.1053 10.3505 18 10.6048 18 10.87V11.09C18 11.3552 18.1053 11.6096 18.2929 11.7971C18.4804 11.9847 18.7347 12.09 19 12.09C19.2652 12.09 19.5195 11.9847 19.7071 11.7971C19.8946 11.6096 20 11.3552 20 11.09V10.87C19.9947 10.6083 19.8871 10.359 19.7001 10.1758C19.5131 9.99258 19.2618 9.88998 19 9.89003V9.87003ZM15.1 19H14.9C14.6347 19 14.3804 19.1054 14.1929 19.2929C14.0053 19.4805 13.9 19.7348 13.9 20C13.9 20.2652 14.0053 20.5196 14.1929 20.7071C14.3804 20.8947 14.6347 21 14.9 21H15.1C15.3652 21 15.6195 20.8947 15.8071 20.7071C15.9946 20.5196 16.1 20.2652 16.1 20C16.1 19.7348 15.9946 19.4805 15.8071 19.2929C15.6195 19.1054 15.3652 19 15.1 19ZM14.61 3.00003C14.8752 3.00003 15.1295 2.89467 15.3171 2.70713C15.5046 2.5196 15.61 2.26524 15.61 2.00003C15.61 1.73481 15.5046 1.48046 15.3171 1.29292C15.1295 1.10538 14.8752 1.00003 14.61 1.00003H14.4C14.1347 1.00003 13.8804 1.10538 13.6929 1.29292C13.5053 1.48046 13.4 1.73481 13.4 2.00003C13.4 2.26524 13.5053 2.5196 13.6929 2.70713C13.8804 2.89467 14.1347 3.00003 14.4 3.00003H14.61Z" fill="white"/>
</svg>
