<svg width="16" height="16" viewBox="0 0 16 16" fill="none" xmlns="http://www.w3.org/2000/svg">
<path d="M13.8333 0.5H2.16667C1.24167 0.5 0.5 1.25 0.5 2.16667V13.8333C0.5 14.75 1.24167 15.5 2.16667 15.5H13.8333C14.75 15.5 15.5 14.75 15.5 13.8333V2.16667C15.5 1.25 14.75 0.5 13.8333 0.5ZM6.54167 10.5C6.2 10.5 5.91667 10.2167 5.91667 9.875V8.83333H4.25V9.875C4.25 10.2167 3.96667 10.5 3.625 10.5C3.28333 10.5 3 10.2167 3 9.875V6.125C3 5.78333 3.28333 5.5 3.625 5.5C3.96667 5.5 4.25 5.78333 4.25 6.125V7.58333H5.91667V6.125C5.91667 5.78333 6.2 5.5 6.54167 5.5C6.88333 5.5 7.16667 5.78333 7.16667 6.125V9.875C7.16667 10.2167 6.88333 10.5 6.54167 10.5ZM9.25 5.5H12.1667C12.625 5.5 13 5.875 13 6.33333V9.66667C13 10.125 12.625 10.5 12.1667 10.5H9.25C9.01667 10.5 8.83333 10.3167 8.83333 10.0833V5.91667C8.83333 5.68333 9.01667 5.5 9.25 5.5ZM10.0833 9.25H11.75V6.75H10.0833V9.25Z" fill="white"/>
</svg>
