<svg width="20" height="14" viewBox="0 0 20 14" fill="none" xmlns="http://www.w3.org/2000/svg">
<path d="M19.53 1.15C19.378 1.06223 19.2055 1.01603 19.03 1.01603C18.8545 1.01603 18.682 1.06223 18.53 1.15L15 2.89C14.9715 2.11357 14.6429 1.37847 14.0834 0.839439C13.5238 0.300405 12.777 -0.000521775 12 6.79157e-07H3C2.20435 6.79157e-07 1.44129 0.316071 0.87868 0.87868C0.316071 1.44129 0 2.20435 0 3V11C0 11.7957 0.316071 12.5587 0.87868 13.1213C1.44129 13.6839 2.20435 14 3 14H12C12.777 14.0005 13.5238 13.6996 14.0834 13.1606C14.6429 12.6215 14.9715 11.8864 15 11.11L18.56 12.89C18.6963 12.9599 18.8468 12.9975 19 13C19.1872 13.0006 19.3709 12.9486 19.53 12.85C19.6741 12.7599 19.7929 12.6346 19.8751 12.4859C19.9574 12.3372 20.0003 12.1699 20 12V2C20.0003 1.83006 19.9574 1.66283 19.8751 1.51411C19.7929 1.36538 19.6741 1.24007 19.53 1.15ZM13 11C13 11.2652 12.8946 11.5196 12.7071 11.7071C12.5196 11.8946 12.2652 12 12 12H3C2.73478 12 2.48043 11.8946 2.29289 11.7071C2.10536 11.5196 2 11.2652 2 11V3C2 2.73478 2.10536 2.48043 2.29289 2.29289C2.48043 2.10536 2.73478 2 3 2H12C12.2652 2 12.5196 2.10536 12.7071 2.29289C12.8946 2.48043 13 2.73478 13 3V11ZM18 10.38L15 8.88V5.12L18 3.62V10.38Z" fill="url(#paint0_linear_1341_53)"/>
<defs>
<linearGradient id="paint0_linear_1341_53" x1="10" y1="0" x2="10" y2="14" gradientUnits="userSpaceOnUse">
<stop stop-color="#08B395"/>
<stop offset="1" stop-color="#0C977F"/>
</linearGradient>
</defs>
</svg>
