<svg width="18" height="18" viewBox="0 0 18 18" fill="none" xmlns="http://www.w3.org/2000/svg">
<path d="M5.66668 8.16699C5.50186 8.16699 5.34074 8.21587 5.2037 8.30743C5.06666 8.399 4.95985 8.52915 4.89678 8.68142C4.8337 8.83369 4.8172 9.00125 4.84936 9.1629C4.88151 9.32455 4.96088 9.47304 5.07742 9.58958C5.19397 9.70612 5.34245 9.78549 5.5041 9.81765C5.66575 9.8498 5.83331 9.8333 5.98558 9.77022C6.13785 9.70715 6.268 9.60034 6.35957 9.4633C6.45114 9.32626 6.50001 9.16514 6.50001 9.00033C6.50001 8.77931 6.41221 8.56735 6.25593 8.41107C6.09965 8.25479 5.88769 8.16699 5.66668 8.16699ZM9.00001 8.16699C8.83519 8.16699 8.67408 8.21587 8.53703 8.30743C8.39999 8.399 8.29318 8.52915 8.23011 8.68142C8.16704 8.83369 8.15054 9.00125 8.18269 9.1629C8.21484 9.32455 8.29421 9.47304 8.41076 9.58958C8.5273 9.70612 8.67578 9.78549 8.83744 9.81765C8.99909 9.8498 9.16664 9.8333 9.31891 9.77022C9.47119 9.70715 9.60133 9.60034 9.6929 9.4633C9.78447 9.32626 9.83334 9.16514 9.83334 9.00033C9.83334 8.77931 9.74555 8.56735 9.58927 8.41107C9.43299 8.25479 9.22102 8.16699 9.00001 8.16699ZM12.3333 8.16699C12.1685 8.16699 12.0074 8.21587 11.8704 8.30743C11.7333 8.399 11.6265 8.52915 11.5634 8.68142C11.5004 8.83369 11.4839 9.00125 11.516 9.1629C11.5482 9.32455 11.6275 9.47304 11.7441 9.58958C11.8606 9.70612 12.0091 9.78549 12.1708 9.81765C12.3324 9.8498 12.5 9.8333 12.6522 9.77022C12.8045 9.70715 12.9347 9.60034 13.0262 9.4633C13.1178 9.32626 13.1667 9.16514 13.1667 9.00033C13.1667 8.77931 13.0789 8.56735 12.9226 8.41107C12.7663 8.25479 12.5544 8.16699 12.3333 8.16699ZM9.00001 0.666992C7.90566 0.666992 6.82203 0.88254 5.81098 1.30133C4.79993 1.72012 3.88128 2.33395 3.10745 3.10777C1.54465 4.67057 0.666677 6.79019 0.666677 9.00033C0.659392 10.9246 1.32567 12.7908 2.55001 14.2753L0.883344 15.942C0.767712 16.0592 0.689382 16.208 0.658237 16.3696C0.627092 16.5313 0.644528 16.6986 0.708344 16.8503C0.777559 17.0003 0.889764 17.1263 1.03072 17.2123C1.17167 17.2984 1.33501 17.3406 1.50001 17.3337H9.00001C11.2101 17.3337 13.3298 16.4557 14.8926 14.8929C16.4554 13.3301 17.3333 11.2105 17.3333 9.00033C17.3333 6.79019 16.4554 4.67057 14.8926 3.10777C13.3298 1.54497 11.2101 0.666992 9.00001 0.666992ZM9.00001 15.667H3.50834L4.28334 14.892C4.36208 14.8148 4.42473 14.7228 4.46764 14.6212C4.51055 14.5197 4.53289 14.4106 4.53334 14.3003C4.53021 14.0805 4.44036 13.8709 4.28334 13.717C3.19217 12.627 2.51266 11.1924 2.36059 9.65765C2.20852 8.12287 2.5933 6.58283 3.44937 5.29993C4.30544 4.01702 5.57984 3.07062 7.05544 2.62197C8.53104 2.17332 10.1166 2.25016 11.5419 2.83942C12.9672 3.42868 14.1441 4.49389 14.872 5.85357C15.6 7.21325 15.8341 8.78328 15.5343 10.2962C15.2345 11.8091 14.4194 13.1712 13.228 14.1505C12.0365 15.1299 10.5423 15.6658 9.00001 15.667Z" fill="white"/>
</svg>
