<svg width="14" height="20" viewBox="0 0 14 20" fill="none" xmlns="http://www.w3.org/2000/svg">
<path d="M6.99998 12.4997C7.88403 12.4997 8.73188 12.1485 9.357 11.5234C9.98212 10.8982 10.3333 10.0504 10.3333 9.16634V4.16634C10.3333 3.28229 9.98212 2.43444 9.357 1.80932C8.73188 1.1842 7.88403 0.833008 6.99998 0.833008C6.11592 0.833008 5.26808 1.1842 4.64296 1.80932C4.01784 2.43444 3.66665 3.28229 3.66665 4.16634V9.16634C3.66665 10.0504 4.01784 10.8982 4.64296 11.5234C5.26808 12.1485 6.11592 12.4997 6.99998 12.4997ZM5.33331 4.16634C5.33331 3.72431 5.50891 3.30039 5.82147 2.98783C6.13403 2.67527 6.55795 2.49967 6.99998 2.49967C7.44201 2.49967 7.86593 2.67527 8.17849 2.98783C8.49105 3.30039 8.66665 3.72431 8.66665 4.16634V9.16634C8.66665 9.60837 8.49105 10.0323 8.17849 10.3449C7.86593 10.6574 7.44201 10.833 6.99998 10.833C6.55795 10.833 6.13403 10.6574 5.82147 10.3449C5.50891 10.0323 5.33331 9.60837 5.33331 9.16634V4.16634ZM13.6666 9.16634C13.6666 8.94533 13.5788 8.73337 13.4226 8.57709C13.2663 8.4208 13.0543 8.33301 12.8333 8.33301C12.6123 8.33301 12.4003 8.4208 12.2441 8.57709C12.0878 8.73337 12 8.94533 12 9.16634C12 10.4924 11.4732 11.7642 10.5355 12.7019C9.59783 13.6396 8.32606 14.1663 6.99998 14.1663C5.6739 14.1663 4.40213 13.6396 3.46445 12.7019C2.52676 11.7642 1.99998 10.4924 1.99998 9.16634C1.99998 8.94533 1.91218 8.73337 1.7559 8.57709C1.59962 8.4208 1.38766 8.33301 1.16665 8.33301C0.945633 8.33301 0.733671 8.4208 0.577391 8.57709C0.421111 8.73337 0.333313 8.94533 0.333313 9.16634C0.334784 10.7891 0.928081 12.3556 2.00198 13.5721C3.07587 14.7887 4.55663 15.5718 6.16665 15.7747V17.4997H4.49998C4.27897 17.4997 4.067 17.5875 3.91072 17.7437C3.75444 17.9 3.66665 18.112 3.66665 18.333C3.66665 18.554 3.75444 18.766 3.91072 18.9223C4.067 19.0785 4.27897 19.1663 4.49998 19.1663H9.49998C9.72099 19.1663 9.93295 19.0785 10.0892 18.9223C10.2455 18.766 10.3333 18.554 10.3333 18.333C10.3333 18.112 10.2455 17.9 10.0892 17.7437C9.93295 17.5875 9.72099 17.4997 9.49998 17.4997H7.83331V15.7747C9.44333 15.5718 10.9241 14.7887 11.998 13.5721C13.0719 12.3556 13.6652 10.7891 13.6666 9.16634Z" fill="#959595"/>
</svg>
